<?xml version="1.0" encoding="utf-8"?>
<!-- Generator: Adobe Illustrator 24.1.2, SVG Export Plug-In . SVG Version: 6.00 Build 0)  -->
<svg version="1.1" id="Layer_1" xmlns="http://www.w3.org/2000/svg" xmlns:xlink="http://www.w3.org/1999/xlink" x="0px" y="0px"
	 viewBox="0 0 1080 1080" style="enable-background:new 0 0 1080 1080;" xml:space="preserve">
<style type="text/css">
	.st0{fill:#FFFFFF;}
</style>
<title>m1</title>
<g>
	<rect x="1.33" y="1.33" shape-rendering="optimizeSpeed" class="st0" width="1077.34" height="1077.34"/>
	<rect x="71.36" y="71.36" shape-rendering="optimizeSpeed" width="32.32" height="32.32"/>
	<rect x="103.68" y="71.36" shape-rendering="optimizeSpeed" width="32.32" height="32.32"/>
	<rect x="136" y="71.36" shape-rendering="optimizeSpeed" width="32.32" height="32.32"/>
	<rect x="168.32" y="71.36" shape-rendering="optimizeSpeed" width="32.32" height="32.32"/>
	<rect x="200.64" y="71.36" shape-rendering="optimizeSpeed" width="32.32" height="32.32"/>
	<rect x="232.96" y="71.36" shape-rendering="optimizeSpeed" width="32.32" height="32.32"/>
	<rect x="265.28" y="71.36" shape-rendering="optimizeSpeed" width="32.32" height="32.32"/>
	<rect x="329.92" y="71.36" shape-rendering="optimizeSpeed" width="32.32" height="32.32"/>
	<rect x="362.24" y="71.36" shape-rendering="optimizeSpeed" width="32.32" height="32.32"/>
	<rect x="491.52" y="71.36" shape-rendering="optimizeSpeed" width="32.32" height="32.32"/>
	<rect x="523.84" y="71.36" shape-rendering="optimizeSpeed" width="32.32" height="32.32"/>
	<rect x="685.44" y="71.36" shape-rendering="optimizeSpeed" width="32.32" height="32.32"/>
	<rect x="782.4" y="71.36" shape-rendering="optimizeSpeed" width="32.32" height="32.32"/>
	<rect x="814.72" y="71.36" shape-rendering="optimizeSpeed" width="32.32" height="32.32"/>
	<rect x="847.04" y="71.36" shape-rendering="optimizeSpeed" width="32.32" height="32.32"/>
	<rect x="879.36" y="71.36" shape-rendering="optimizeSpeed" width="32.32" height="32.32"/>
	<rect x="911.68" y="71.36" shape-rendering="optimizeSpeed" width="32.32" height="32.32"/>
	<rect x="944" y="71.36" shape-rendering="optimizeSpeed" width="32.32" height="32.32"/>
	<rect x="976.32" y="71.36" shape-rendering="optimizeSpeed" width="32.32" height="32.32"/>
	<rect x="71.36" y="103.68" shape-rendering="optimizeSpeed" width="32.32" height="32.32"/>
	<rect x="265.28" y="103.68" shape-rendering="optimizeSpeed" width="32.32" height="32.32"/>
	<rect x="523.84" y="103.68" shape-rendering="optimizeSpeed" width="32.32" height="32.32"/>
	<rect x="653.12" y="103.68" shape-rendering="optimizeSpeed" width="32.32" height="32.32"/>
	<rect x="782.4" y="103.68" shape-rendering="optimizeSpeed" width="32.32" height="32.32"/>
	<rect x="976.32" y="103.68" shape-rendering="optimizeSpeed" width="32.32" height="32.32"/>
	<rect x="71.36" y="136" shape-rendering="optimizeSpeed" width="32.32" height="32.32"/>
	<rect x="136" y="136" shape-rendering="optimizeSpeed" width="32.32" height="32.32"/>
	<rect x="168.32" y="136" shape-rendering="optimizeSpeed" width="32.32" height="32.32"/>
	<rect x="200.64" y="136" shape-rendering="optimizeSpeed" width="32.32" height="32.32"/>
	<rect x="265.28" y="136" shape-rendering="optimizeSpeed" width="32.32" height="32.32"/>
	<rect x="329.92" y="136" shape-rendering="optimizeSpeed" width="32.32" height="32.32"/>
	<rect x="426.88" y="136" shape-rendering="optimizeSpeed" width="32.32" height="32.32"/>
	<rect x="459.2" y="136" shape-rendering="optimizeSpeed" width="32.32" height="32.32"/>
	<rect x="491.52" y="136" shape-rendering="optimizeSpeed" width="32.32" height="32.32"/>
	<rect x="556.16" y="136" shape-rendering="optimizeSpeed" width="32.32" height="32.32"/>
	<rect x="588.48" y="136" shape-rendering="optimizeSpeed" width="32.32" height="32.32"/>
	<rect x="782.4" y="136" shape-rendering="optimizeSpeed" width="32.32" height="32.32"/>
	<rect x="847.04" y="136" shape-rendering="optimizeSpeed" width="32.32" height="32.32"/>
	<rect x="879.36" y="136" shape-rendering="optimizeSpeed" width="32.32" height="32.32"/>
	<rect x="911.68" y="136" shape-rendering="optimizeSpeed" width="32.32" height="32.32"/>
	<rect x="976.32" y="136" shape-rendering="optimizeSpeed" width="32.32" height="32.32"/>
	<rect x="71.36" y="168.32" shape-rendering="optimizeSpeed" width="32.32" height="32.32"/>
	<rect x="136" y="168.32" shape-rendering="optimizeSpeed" width="32.32" height="32.32"/>
	<rect x="168.32" y="168.32" shape-rendering="optimizeSpeed" width="32.32" height="32.32"/>
	<rect x="200.64" y="168.32" shape-rendering="optimizeSpeed" width="32.32" height="32.32"/>
	<rect x="265.28" y="168.32" shape-rendering="optimizeSpeed" width="32.32" height="32.32"/>
	<rect x="329.92" y="168.32" shape-rendering="optimizeSpeed" width="32.32" height="32.32"/>
	<rect x="362.24" y="168.32" shape-rendering="optimizeSpeed" width="32.32" height="32.32"/>
	<rect x="426.88" y="168.32" shape-rendering="optimizeSpeed" width="32.32" height="32.32"/>
	<rect x="620.8" y="168.32" shape-rendering="optimizeSpeed" width="32.32" height="32.32"/>
	<rect x="717.76" y="168.32" shape-rendering="optimizeSpeed" width="32.32" height="32.32"/>
	<rect x="782.4" y="168.32" shape-rendering="optimizeSpeed" width="32.32" height="32.32"/>
	<rect x="847.04" y="168.32" shape-rendering="optimizeSpeed" width="32.32" height="32.32"/>
	<rect x="879.36" y="168.32" shape-rendering="optimizeSpeed" width="32.32" height="32.32"/>
	<rect x="911.68" y="168.32" shape-rendering="optimizeSpeed" width="32.32" height="32.32"/>
	<rect x="976.32" y="168.32" shape-rendering="optimizeSpeed" width="32.32" height="32.32"/>
	<rect x="71.36" y="200.64" shape-rendering="optimizeSpeed" width="32.32" height="32.32"/>
	<rect x="136" y="200.64" shape-rendering="optimizeSpeed" width="32.32" height="32.32"/>
	<rect x="168.32" y="200.64" shape-rendering="optimizeSpeed" width="32.32" height="32.32"/>
	<rect x="200.64" y="200.64" shape-rendering="optimizeSpeed" width="32.32" height="32.32"/>
	<rect x="265.28" y="200.64" shape-rendering="optimizeSpeed" width="32.32" height="32.32"/>
	<rect x="329.92" y="200.64" shape-rendering="optimizeSpeed" width="32.32" height="32.32"/>
	<rect x="362.24" y="200.64" shape-rendering="optimizeSpeed" width="32.32" height="32.32"/>
	<rect x="394.56" y="200.64" shape-rendering="optimizeSpeed" width="32.32" height="32.32"/>
	<rect x="426.88" y="200.64" shape-rendering="optimizeSpeed" width="32.32" height="32.32"/>
	<rect x="491.52" y="200.64" shape-rendering="optimizeSpeed" width="32.32" height="32.32"/>
	<rect x="523.84" y="200.64" shape-rendering="optimizeSpeed" width="32.32" height="32.32"/>
	<rect x="588.48" y="200.64" shape-rendering="optimizeSpeed" width="32.32" height="32.32"/>
	<rect x="620.8" y="200.64" shape-rendering="optimizeSpeed" width="32.32" height="32.32"/>
	<rect x="653.12" y="200.64" shape-rendering="optimizeSpeed" width="32.32" height="32.32"/>
	<rect x="685.44" y="200.64" shape-rendering="optimizeSpeed" width="32.32" height="32.32"/>
	<rect x="717.76" y="200.64" shape-rendering="optimizeSpeed" width="32.32" height="32.32"/>
	<rect x="782.4" y="200.64" shape-rendering="optimizeSpeed" width="32.32" height="32.32"/>
	<rect x="847.04" y="200.64" shape-rendering="optimizeSpeed" width="32.32" height="32.32"/>
	<rect x="879.36" y="200.64" shape-rendering="optimizeSpeed" width="32.32" height="32.32"/>
	<rect x="911.68" y="200.64" shape-rendering="optimizeSpeed" width="32.32" height="32.32"/>
	<rect x="976.32" y="200.64" shape-rendering="optimizeSpeed" width="32.32" height="32.32"/>
	<rect x="71.36" y="232.96" shape-rendering="optimizeSpeed" width="32.32" height="32.32"/>
	<rect x="265.28" y="232.96" shape-rendering="optimizeSpeed" width="32.32" height="32.32"/>
	<rect x="362.24" y="232.96" shape-rendering="optimizeSpeed" width="32.32" height="32.32"/>
	<rect x="459.2" y="232.96" shape-rendering="optimizeSpeed" width="32.32" height="32.32"/>
	<rect x="523.84" y="232.96" shape-rendering="optimizeSpeed" width="32.32" height="32.32"/>
	<rect x="620.8" y="232.96" shape-rendering="optimizeSpeed" width="32.32" height="32.32"/>
	<rect x="653.12" y="232.96" shape-rendering="optimizeSpeed" width="32.32" height="32.32"/>
	<rect x="685.44" y="232.96" shape-rendering="optimizeSpeed" width="32.32" height="32.32"/>
	<rect x="717.76" y="232.96" shape-rendering="optimizeSpeed" width="32.32" height="32.32"/>
	<rect x="782.4" y="232.96" shape-rendering="optimizeSpeed" width="32.32" height="32.32"/>
	<rect x="976.32" y="232.96" shape-rendering="optimizeSpeed" width="32.32" height="32.32"/>
	<rect x="71.36" y="265.28" shape-rendering="optimizeSpeed" width="32.32" height="32.32"/>
	<rect x="103.68" y="265.28" shape-rendering="optimizeSpeed" width="32.32" height="32.32"/>
	<rect x="136" y="265.28" shape-rendering="optimizeSpeed" width="32.32" height="32.32"/>
	<rect x="168.32" y="265.28" shape-rendering="optimizeSpeed" width="32.32" height="32.32"/>
	<rect x="200.64" y="265.28" shape-rendering="optimizeSpeed" width="32.32" height="32.32"/>
	<rect x="232.96" y="265.28" shape-rendering="optimizeSpeed" width="32.32" height="32.32"/>
	<rect x="265.28" y="265.28" shape-rendering="optimizeSpeed" width="32.32" height="32.32"/>
	<rect x="329.92" y="265.28" shape-rendering="optimizeSpeed" width="32.32" height="32.32"/>
	<rect x="394.56" y="265.28" shape-rendering="optimizeSpeed" width="32.32" height="32.32"/>
	<rect x="459.2" y="265.28" shape-rendering="optimizeSpeed" width="32.32" height="32.32"/>
	<rect x="523.84" y="265.28" shape-rendering="optimizeSpeed" width="32.32" height="32.32"/>
	<rect x="588.48" y="265.28" shape-rendering="optimizeSpeed" width="32.32" height="32.32"/>
	<rect x="653.12" y="265.28" shape-rendering="optimizeSpeed" width="32.32" height="32.32"/>
	<rect x="717.76" y="265.28" shape-rendering="optimizeSpeed" width="32.32" height="32.32"/>
	<rect x="782.4" y="265.28" shape-rendering="optimizeSpeed" width="32.32" height="32.32"/>
	<rect x="814.72" y="265.28" shape-rendering="optimizeSpeed" width="32.32" height="32.32"/>
	<rect x="847.04" y="265.28" shape-rendering="optimizeSpeed" width="32.32" height="32.32"/>
	<rect x="879.36" y="265.28" shape-rendering="optimizeSpeed" width="32.32" height="32.32"/>
	<rect x="911.68" y="265.28" shape-rendering="optimizeSpeed" width="32.32" height="32.32"/>
	<rect x="944" y="265.28" shape-rendering="optimizeSpeed" width="32.32" height="32.32"/>
	<rect x="976.32" y="265.28" shape-rendering="optimizeSpeed" width="32.32" height="32.32"/>
	<rect x="362.24" y="297.6" shape-rendering="optimizeSpeed" width="32.32" height="32.32"/>
	<rect x="426.88" y="297.6" shape-rendering="optimizeSpeed" width="32.32" height="32.32"/>
	<rect x="491.52" y="297.6" shape-rendering="optimizeSpeed" width="32.32" height="32.32"/>
	<rect x="523.84" y="297.6" shape-rendering="optimizeSpeed" width="32.32" height="32.32"/>
	<rect x="556.16" y="297.6" shape-rendering="optimizeSpeed" width="32.32" height="32.32"/>
	<rect x="620.8" y="297.6" shape-rendering="optimizeSpeed" width="32.32" height="32.32"/>
	<rect x="685.44" y="297.6" shape-rendering="optimizeSpeed" width="32.32" height="32.32"/>
	<rect x="71.36" y="329.92" shape-rendering="optimizeSpeed" width="32.32" height="32.32"/>
	<rect x="103.68" y="329.92" shape-rendering="optimizeSpeed" width="32.32" height="32.32"/>
	<rect x="136" y="329.92" shape-rendering="optimizeSpeed" width="32.32" height="32.32"/>
	<rect x="168.32" y="329.92" shape-rendering="optimizeSpeed" width="32.32" height="32.32"/>
	<rect x="265.28" y="329.92" shape-rendering="optimizeSpeed" width="32.32" height="32.32"/>
	<rect x="329.92" y="329.92" shape-rendering="optimizeSpeed" width="32.32" height="32.32"/>
	<rect x="491.52" y="329.92" shape-rendering="optimizeSpeed" width="32.32" height="32.32"/>
	<rect x="523.84" y="329.92" shape-rendering="optimizeSpeed" width="32.32" height="32.32"/>
	<rect x="588.48" y="329.92" shape-rendering="optimizeSpeed" width="32.32" height="32.32"/>
	<rect x="620.8" y="329.92" shape-rendering="optimizeSpeed" width="32.32" height="32.32"/>
	<rect x="653.12" y="329.92" shape-rendering="optimizeSpeed" width="32.32" height="32.32"/>
	<rect x="685.44" y="329.92" shape-rendering="optimizeSpeed" width="32.32" height="32.32"/>
	<rect x="717.76" y="329.92" shape-rendering="optimizeSpeed" width="32.32" height="32.32"/>
	<rect x="750.08" y="329.92" shape-rendering="optimizeSpeed" width="32.32" height="32.32"/>
	<rect x="847.04" y="329.92" shape-rendering="optimizeSpeed" width="32.32" height="32.32"/>
	<rect x="879.36" y="329.92" shape-rendering="optimizeSpeed" width="32.32" height="32.32"/>
	<rect x="911.68" y="329.92" shape-rendering="optimizeSpeed" width="32.32" height="32.32"/>
	<rect x="976.32" y="329.92" shape-rendering="optimizeSpeed" width="32.32" height="32.32"/>
	<rect x="71.36" y="362.24" shape-rendering="optimizeSpeed" width="32.32" height="32.32"/>
	<rect x="136" y="362.24" shape-rendering="optimizeSpeed" width="32.32" height="32.32"/>
	<rect x="168.32" y="362.24" shape-rendering="optimizeSpeed" width="32.32" height="32.32"/>
	<rect x="232.96" y="362.24" shape-rendering="optimizeSpeed" width="32.32" height="32.32"/>
	<rect x="297.6" y="362.24" shape-rendering="optimizeSpeed" width="32.32" height="32.32"/>
	<rect x="362.24" y="362.24" shape-rendering="optimizeSpeed" width="32.32" height="32.32"/>
	<rect x="588.48" y="362.24" shape-rendering="optimizeSpeed" width="32.32" height="32.32"/>
	<rect x="620.8" y="362.24" shape-rendering="optimizeSpeed" width="32.32" height="32.32"/>
	<rect x="653.12" y="362.24" shape-rendering="optimizeSpeed" width="32.32" height="32.32"/>
	<rect x="685.44" y="362.24" shape-rendering="optimizeSpeed" width="32.32" height="32.32"/>
	<rect x="750.08" y="362.24" shape-rendering="optimizeSpeed" width="32.32" height="32.32"/>
	<rect x="782.4" y="362.24" shape-rendering="optimizeSpeed" width="32.32" height="32.32"/>
	<rect x="814.72" y="362.24" shape-rendering="optimizeSpeed" width="32.32" height="32.32"/>
	<rect x="847.04" y="362.24" shape-rendering="optimizeSpeed" width="32.32" height="32.32"/>
	<rect x="976.32" y="362.24" shape-rendering="optimizeSpeed" width="32.32" height="32.32"/>
	<rect x="71.36" y="394.56" shape-rendering="optimizeSpeed" width="32.32" height="32.32"/>
	<rect x="103.68" y="394.56" shape-rendering="optimizeSpeed" width="32.32" height="32.32"/>
	<rect x="168.32" y="394.56" shape-rendering="optimizeSpeed" width="32.32" height="32.32"/>
	<rect x="200.64" y="394.56" shape-rendering="optimizeSpeed" width="32.32" height="32.32"/>
	<rect x="232.96" y="394.56" shape-rendering="optimizeSpeed" width="32.32" height="32.32"/>
	<rect x="265.28" y="394.56" shape-rendering="optimizeSpeed" width="32.32" height="32.32"/>
	<rect x="297.6" y="394.56" shape-rendering="optimizeSpeed" width="32.32" height="32.32"/>
	<rect x="329.92" y="394.56" shape-rendering="optimizeSpeed" width="32.32" height="32.32"/>
	<rect x="523.84" y="394.56" shape-rendering="optimizeSpeed" width="32.32" height="32.32"/>
	<rect x="653.12" y="394.56" shape-rendering="optimizeSpeed" width="32.32" height="32.32"/>
	<rect x="750.08" y="394.56" shape-rendering="optimizeSpeed" width="32.32" height="32.32"/>
	<rect x="814.72" y="394.56" shape-rendering="optimizeSpeed" width="32.32" height="32.32"/>
	<rect x="847.04" y="394.56" shape-rendering="optimizeSpeed" width="32.32" height="32.32"/>
	<rect x="911.68" y="394.56" shape-rendering="optimizeSpeed" width="32.32" height="32.32"/>
	<rect x="944" y="394.56" shape-rendering="optimizeSpeed" width="32.32" height="32.32"/>
	<rect x="103.68" y="426.88" shape-rendering="optimizeSpeed" width="32.32" height="32.32"/>
	<rect x="200.64" y="426.88" shape-rendering="optimizeSpeed" width="32.32" height="32.32"/>
	<rect x="232.96" y="426.88" shape-rendering="optimizeSpeed" width="32.32" height="32.32"/>
	<rect x="329.92" y="426.88" shape-rendering="optimizeSpeed" width="32.32" height="32.32"/>
	<rect x="426.88" y="426.88" shape-rendering="optimizeSpeed" width="32.32" height="32.32"/>
	<rect x="459.2" y="426.88" shape-rendering="optimizeSpeed" width="32.32" height="32.32"/>
	<rect x="491.52" y="426.88" shape-rendering="optimizeSpeed" width="32.32" height="32.32"/>
	<rect x="523.84" y="426.88" shape-rendering="optimizeSpeed" width="32.32" height="32.32"/>
	<rect x="653.12" y="426.88" shape-rendering="optimizeSpeed" width="32.32" height="32.32"/>
	<rect x="717.76" y="426.88" shape-rendering="optimizeSpeed" width="32.32" height="32.32"/>
	<rect x="750.08" y="426.88" shape-rendering="optimizeSpeed" width="32.32" height="32.32"/>
	<rect x="814.72" y="426.88" shape-rendering="optimizeSpeed" width="32.32" height="32.32"/>
	<rect x="847.04" y="426.88" shape-rendering="optimizeSpeed" width="32.32" height="32.32"/>
	<rect x="976.32" y="426.88" shape-rendering="optimizeSpeed" width="32.32" height="32.32"/>
	<rect x="71.36" y="459.2" shape-rendering="optimizeSpeed" width="32.32" height="32.32"/>
	<rect x="136" y="459.2" shape-rendering="optimizeSpeed" width="32.32" height="32.32"/>
	<rect x="265.28" y="459.2" shape-rendering="optimizeSpeed" width="32.32" height="32.32"/>
	<rect x="297.6" y="459.2" shape-rendering="optimizeSpeed" width="32.32" height="32.32"/>
	<rect x="362.24" y="459.2" shape-rendering="optimizeSpeed" width="32.32" height="32.32"/>
	<rect x="426.88" y="459.2" shape-rendering="optimizeSpeed" width="32.32" height="32.32"/>
	<rect x="556.16" y="459.2" shape-rendering="optimizeSpeed" width="32.32" height="32.32"/>
	<rect x="588.48" y="459.2" shape-rendering="optimizeSpeed" width="32.32" height="32.32"/>
	<rect x="620.8" y="459.2" shape-rendering="optimizeSpeed" width="32.32" height="32.32"/>
	<rect x="685.44" y="459.2" shape-rendering="optimizeSpeed" width="32.32" height="32.32"/>
	<rect x="879.36" y="459.2" shape-rendering="optimizeSpeed" width="32.32" height="32.32"/>
	<rect x="911.68" y="459.2" shape-rendering="optimizeSpeed" width="32.32" height="32.32"/>
	<rect x="329.92" y="491.52" shape-rendering="optimizeSpeed" width="32.32" height="32.32"/>
	<rect x="362.24" y="491.52" shape-rendering="optimizeSpeed" width="32.32" height="32.32"/>
	<rect x="394.56" y="491.52" shape-rendering="optimizeSpeed" width="32.32" height="32.32"/>
	<rect x="426.88" y="491.52" shape-rendering="optimizeSpeed" width="32.32" height="32.32"/>
	<rect x="491.52" y="491.52" shape-rendering="optimizeSpeed" width="32.32" height="32.32"/>
	<rect x="556.16" y="491.52" shape-rendering="optimizeSpeed" width="32.32" height="32.32"/>
	<rect x="620.8" y="491.52" shape-rendering="optimizeSpeed" width="32.32" height="32.32"/>
	<rect x="653.12" y="491.52" shape-rendering="optimizeSpeed" width="32.32" height="32.32"/>
	<rect x="685.44" y="491.52" shape-rendering="optimizeSpeed" width="32.32" height="32.32"/>
	<rect x="717.76" y="491.52" shape-rendering="optimizeSpeed" width="32.32" height="32.32"/>
	<rect x="782.4" y="491.52" shape-rendering="optimizeSpeed" width="32.32" height="32.32"/>
	<rect x="814.72" y="491.52" shape-rendering="optimizeSpeed" width="32.32" height="32.32"/>
	<rect x="911.68" y="491.52" shape-rendering="optimizeSpeed" width="32.32" height="32.32"/>
	<rect x="944" y="491.52" shape-rendering="optimizeSpeed" width="32.32" height="32.32"/>
	<rect x="976.32" y="491.52" shape-rendering="optimizeSpeed" width="32.32" height="32.32"/>
	<rect x="71.36" y="523.84" shape-rendering="optimizeSpeed" width="32.32" height="32.32"/>
	<rect x="232.96" y="523.84" shape-rendering="optimizeSpeed" width="32.32" height="32.32"/>
	<rect x="265.28" y="523.84" shape-rendering="optimizeSpeed" width="32.32" height="32.32"/>
	<rect x="297.6" y="523.84" shape-rendering="optimizeSpeed" width="32.32" height="32.32"/>
	<rect x="362.24" y="523.84" shape-rendering="optimizeSpeed" width="32.32" height="32.32"/>
	<rect x="394.56" y="523.84" shape-rendering="optimizeSpeed" width="32.32" height="32.32"/>
	<rect x="459.2" y="523.84" shape-rendering="optimizeSpeed" width="32.32" height="32.32"/>
	<rect x="523.84" y="523.84" shape-rendering="optimizeSpeed" width="32.32" height="32.32"/>
	<rect x="653.12" y="523.84" shape-rendering="optimizeSpeed" width="32.32" height="32.32"/>
	<rect x="685.44" y="523.84" shape-rendering="optimizeSpeed" width="32.32" height="32.32"/>
	<rect x="717.76" y="523.84" shape-rendering="optimizeSpeed" width="32.32" height="32.32"/>
	<rect x="750.08" y="523.84" shape-rendering="optimizeSpeed" width="32.32" height="32.32"/>
	<rect x="814.72" y="523.84" shape-rendering="optimizeSpeed" width="32.32" height="32.32"/>
	<rect x="847.04" y="523.84" shape-rendering="optimizeSpeed" width="32.32" height="32.32"/>
	<rect x="911.68" y="523.84" shape-rendering="optimizeSpeed" width="32.32" height="32.32"/>
	<rect x="944" y="523.84" shape-rendering="optimizeSpeed" width="32.32" height="32.32"/>
	<rect x="976.32" y="523.84" shape-rendering="optimizeSpeed" width="32.32" height="32.32"/>
	<rect x="71.36" y="556.16" shape-rendering="optimizeSpeed" width="32.32" height="32.32"/>
	<rect x="103.68" y="556.16" shape-rendering="optimizeSpeed" width="32.32" height="32.32"/>
	<rect x="297.6" y="556.16" shape-rendering="optimizeSpeed" width="32.32" height="32.32"/>
	<rect x="329.92" y="556.16" shape-rendering="optimizeSpeed" width="32.32" height="32.32"/>
	<rect x="362.24" y="556.16" shape-rendering="optimizeSpeed" width="32.32" height="32.32"/>
	<rect x="394.56" y="556.16" shape-rendering="optimizeSpeed" width="32.32" height="32.32"/>
	<rect x="459.2" y="556.16" shape-rendering="optimizeSpeed" width="32.32" height="32.32"/>
	<rect x="491.52" y="556.16" shape-rendering="optimizeSpeed" width="32.32" height="32.32"/>
	<rect x="556.16" y="556.16" shape-rendering="optimizeSpeed" width="32.32" height="32.32"/>
	<rect x="588.48" y="556.16" shape-rendering="optimizeSpeed" width="32.32" height="32.32"/>
	<rect x="653.12" y="556.16" shape-rendering="optimizeSpeed" width="32.32" height="32.32"/>
	<rect x="685.44" y="556.16" shape-rendering="optimizeSpeed" width="32.32" height="32.32"/>
	<rect x="750.08" y="556.16" shape-rendering="optimizeSpeed" width="32.32" height="32.32"/>
	<rect x="814.72" y="556.16" shape-rendering="optimizeSpeed" width="32.32" height="32.32"/>
	<rect x="944" y="556.16" shape-rendering="optimizeSpeed" width="32.32" height="32.32"/>
	<rect x="265.28" y="588.48" shape-rendering="optimizeSpeed" width="32.32" height="32.32"/>
	<rect x="394.56" y="588.48" shape-rendering="optimizeSpeed" width="32.32" height="32.32"/>
	<rect x="426.88" y="588.48" shape-rendering="optimizeSpeed" width="32.32" height="32.32"/>
	<rect x="588.48" y="588.48" shape-rendering="optimizeSpeed" width="32.32" height="32.32"/>
	<rect x="620.8" y="588.48" shape-rendering="optimizeSpeed" width="32.32" height="32.32"/>
	<rect x="653.12" y="588.48" shape-rendering="optimizeSpeed" width="32.32" height="32.32"/>
	<rect x="814.72" y="588.48" shape-rendering="optimizeSpeed" width="32.32" height="32.32"/>
	<rect x="847.04" y="588.48" shape-rendering="optimizeSpeed" width="32.32" height="32.32"/>
	<rect x="879.36" y="588.48" shape-rendering="optimizeSpeed" width="32.32" height="32.32"/>
	<rect x="944" y="588.48" shape-rendering="optimizeSpeed" width="32.32" height="32.32"/>
	<rect x="168.32" y="620.8" shape-rendering="optimizeSpeed" width="32.32" height="32.32"/>
	<rect x="200.64" y="620.8" shape-rendering="optimizeSpeed" width="32.32" height="32.32"/>
	<rect x="232.96" y="620.8" shape-rendering="optimizeSpeed" width="32.32" height="32.32"/>
	<rect x="297.6" y="620.8" shape-rendering="optimizeSpeed" width="32.32" height="32.32"/>
	<rect x="329.92" y="620.8" shape-rendering="optimizeSpeed" width="32.32" height="32.32"/>
	<rect x="394.56" y="620.8" shape-rendering="optimizeSpeed" width="32.32" height="32.32"/>
	<rect x="459.2" y="620.8" shape-rendering="optimizeSpeed" width="32.32" height="32.32"/>
	<rect x="491.52" y="620.8" shape-rendering="optimizeSpeed" width="32.32" height="32.32"/>
	<rect x="556.16" y="620.8" shape-rendering="optimizeSpeed" width="32.32" height="32.32"/>
	<rect x="653.12" y="620.8" shape-rendering="optimizeSpeed" width="32.32" height="32.32"/>
	<rect x="717.76" y="620.8" shape-rendering="optimizeSpeed" width="32.32" height="32.32"/>
	<rect x="814.72" y="620.8" shape-rendering="optimizeSpeed" width="32.32" height="32.32"/>
	<rect x="879.36" y="620.8" shape-rendering="optimizeSpeed" width="32.32" height="32.32"/>
	<rect x="911.68" y="620.8" shape-rendering="optimizeSpeed" width="32.32" height="32.32"/>
	<rect x="944" y="620.8" shape-rendering="optimizeSpeed" width="32.32" height="32.32"/>
	<rect x="71.36" y="653.12" shape-rendering="optimizeSpeed" width="32.32" height="32.32"/>
	<rect x="168.32" y="653.12" shape-rendering="optimizeSpeed" width="32.32" height="32.32"/>
	<rect x="232.96" y="653.12" shape-rendering="optimizeSpeed" width="32.32" height="32.32"/>
	<rect x="265.28" y="653.12" shape-rendering="optimizeSpeed" width="32.32" height="32.32"/>
	<rect x="297.6" y="653.12" shape-rendering="optimizeSpeed" width="32.32" height="32.32"/>
	<rect x="329.92" y="653.12" shape-rendering="optimizeSpeed" width="32.32" height="32.32"/>
	<rect x="426.88" y="653.12" shape-rendering="optimizeSpeed" width="32.32" height="32.32"/>
	<rect x="459.2" y="653.12" shape-rendering="optimizeSpeed" width="32.32" height="32.32"/>
	<rect x="556.16" y="653.12" shape-rendering="optimizeSpeed" width="32.32" height="32.32"/>
	<rect x="782.4" y="653.12" shape-rendering="optimizeSpeed" width="32.32" height="32.32"/>
	<rect x="814.72" y="653.12" shape-rendering="optimizeSpeed" width="32.32" height="32.32"/>
	<rect x="911.68" y="653.12" shape-rendering="optimizeSpeed" width="32.32" height="32.32"/>
	<rect x="136" y="685.44" shape-rendering="optimizeSpeed" width="32.32" height="32.32"/>
	<rect x="168.32" y="685.44" shape-rendering="optimizeSpeed" width="32.32" height="32.32"/>
	<rect x="297.6" y="685.44" shape-rendering="optimizeSpeed" width="32.32" height="32.32"/>
	<rect x="362.24" y="685.44" shape-rendering="optimizeSpeed" width="32.32" height="32.32"/>
	<rect x="394.56" y="685.44" shape-rendering="optimizeSpeed" width="32.32" height="32.32"/>
	<rect x="459.2" y="685.44" shape-rendering="optimizeSpeed" width="32.32" height="32.32"/>
	<rect x="556.16" y="685.44" shape-rendering="optimizeSpeed" width="32.32" height="32.32"/>
	<rect x="620.8" y="685.44" shape-rendering="optimizeSpeed" width="32.32" height="32.32"/>
	<rect x="653.12" y="685.44" shape-rendering="optimizeSpeed" width="32.32" height="32.32"/>
	<rect x="717.76" y="685.44" shape-rendering="optimizeSpeed" width="32.32" height="32.32"/>
	<rect x="750.08" y="685.44" shape-rendering="optimizeSpeed" width="32.32" height="32.32"/>
	<rect x="782.4" y="685.44" shape-rendering="optimizeSpeed" width="32.32" height="32.32"/>
	<rect x="847.04" y="685.44" shape-rendering="optimizeSpeed" width="32.32" height="32.32"/>
	<rect x="911.68" y="685.44" shape-rendering="optimizeSpeed" width="32.32" height="32.32"/>
	<rect x="103.68" y="717.76" shape-rendering="optimizeSpeed" width="32.32" height="32.32"/>
	<rect x="136" y="717.76" shape-rendering="optimizeSpeed" width="32.32" height="32.32"/>
	<rect x="168.32" y="717.76" shape-rendering="optimizeSpeed" width="32.32" height="32.32"/>
	<rect x="200.64" y="717.76" shape-rendering="optimizeSpeed" width="32.32" height="32.32"/>
	<rect x="265.28" y="717.76" shape-rendering="optimizeSpeed" width="32.32" height="32.32"/>
	<rect x="426.88" y="717.76" shape-rendering="optimizeSpeed" width="32.32" height="32.32"/>
	<rect x="459.2" y="717.76" shape-rendering="optimizeSpeed" width="32.32" height="32.32"/>
	<rect x="491.52" y="717.76" shape-rendering="optimizeSpeed" width="32.32" height="32.32"/>
	<rect x="653.12" y="717.76" shape-rendering="optimizeSpeed" width="32.32" height="32.32"/>
	<rect x="685.44" y="717.76" shape-rendering="optimizeSpeed" width="32.32" height="32.32"/>
	<rect x="717.76" y="717.76" shape-rendering="optimizeSpeed" width="32.32" height="32.32"/>
	<rect x="750.08" y="717.76" shape-rendering="optimizeSpeed" width="32.32" height="32.32"/>
	<rect x="782.4" y="717.76" shape-rendering="optimizeSpeed" width="32.32" height="32.32"/>
	<rect x="814.72" y="717.76" shape-rendering="optimizeSpeed" width="32.32" height="32.32"/>
	<rect x="847.04" y="717.76" shape-rendering="optimizeSpeed" width="32.32" height="32.32"/>
	<rect x="879.36" y="717.76" shape-rendering="optimizeSpeed" width="32.32" height="32.32"/>
	<rect x="911.68" y="717.76" shape-rendering="optimizeSpeed" width="32.32" height="32.32"/>
	<rect x="329.92" y="750.08" shape-rendering="optimizeSpeed" width="32.32" height="32.32"/>
	<rect x="362.24" y="750.08" shape-rendering="optimizeSpeed" width="32.32" height="32.32"/>
	<rect x="459.2" y="750.08" shape-rendering="optimizeSpeed" width="32.32" height="32.32"/>
	<rect x="491.52" y="750.08" shape-rendering="optimizeSpeed" width="32.32" height="32.32"/>
	<rect x="523.84" y="750.08" shape-rendering="optimizeSpeed" width="32.32" height="32.32"/>
	<rect x="653.12" y="750.08" shape-rendering="optimizeSpeed" width="32.32" height="32.32"/>
	<rect x="685.44" y="750.08" shape-rendering="optimizeSpeed" width="32.32" height="32.32"/>
	<rect x="717.76" y="750.08" shape-rendering="optimizeSpeed" width="32.32" height="32.32"/>
	<rect x="847.04" y="750.08" shape-rendering="optimizeSpeed" width="32.32" height="32.32"/>
	<rect x="879.36" y="750.08" shape-rendering="optimizeSpeed" width="32.32" height="32.32"/>
	<rect x="911.68" y="750.08" shape-rendering="optimizeSpeed" width="32.32" height="32.32"/>
	<rect x="944" y="750.08" shape-rendering="optimizeSpeed" width="32.32" height="32.32"/>
	<rect x="976.32" y="750.08" shape-rendering="optimizeSpeed" width="32.32" height="32.32"/>
	<rect x="71.36" y="782.4" shape-rendering="optimizeSpeed" width="32.32" height="32.32"/>
	<rect x="103.68" y="782.4" shape-rendering="optimizeSpeed" width="32.32" height="32.32"/>
	<rect x="136" y="782.4" shape-rendering="optimizeSpeed" width="32.32" height="32.32"/>
	<rect x="168.32" y="782.4" shape-rendering="optimizeSpeed" width="32.32" height="32.32"/>
	<rect x="200.64" y="782.4" shape-rendering="optimizeSpeed" width="32.32" height="32.32"/>
	<rect x="232.96" y="782.4" shape-rendering="optimizeSpeed" width="32.32" height="32.32"/>
	<rect x="265.28" y="782.4" shape-rendering="optimizeSpeed" width="32.32" height="32.32"/>
	<rect x="426.88" y="782.4" shape-rendering="optimizeSpeed" width="32.32" height="32.32"/>
	<rect x="459.2" y="782.4" shape-rendering="optimizeSpeed" width="32.32" height="32.32"/>
	<rect x="491.52" y="782.4" shape-rendering="optimizeSpeed" width="32.32" height="32.32"/>
	<rect x="588.48" y="782.4" shape-rendering="optimizeSpeed" width="32.32" height="32.32"/>
	<rect x="653.12" y="782.4" shape-rendering="optimizeSpeed" width="32.32" height="32.32"/>
	<rect x="685.44" y="782.4" shape-rendering="optimizeSpeed" width="32.32" height="32.32"/>
	<rect x="717.76" y="782.4" shape-rendering="optimizeSpeed" width="32.32" height="32.32"/>
	<rect x="782.4" y="782.4" shape-rendering="optimizeSpeed" width="32.32" height="32.32"/>
	<rect x="847.04" y="782.4" shape-rendering="optimizeSpeed" width="32.32" height="32.32"/>
	<rect x="879.36" y="782.4" shape-rendering="optimizeSpeed" width="32.32" height="32.32"/>
	<rect x="944" y="782.4" shape-rendering="optimizeSpeed" width="32.32" height="32.32"/>
	<rect x="71.36" y="814.72" shape-rendering="optimizeSpeed" width="32.32" height="32.32"/>
	<rect x="265.28" y="814.72" shape-rendering="optimizeSpeed" width="32.32" height="32.32"/>
	<rect x="394.56" y="814.72" shape-rendering="optimizeSpeed" width="32.32" height="32.32"/>
	<rect x="556.16" y="814.72" shape-rendering="optimizeSpeed" width="32.32" height="32.32"/>
	<rect x="588.48" y="814.72" shape-rendering="optimizeSpeed" width="32.32" height="32.32"/>
	<rect x="653.12" y="814.72" shape-rendering="optimizeSpeed" width="32.32" height="32.32"/>
	<rect x="717.76" y="814.72" shape-rendering="optimizeSpeed" width="32.32" height="32.32"/>
	<rect x="847.04" y="814.72" shape-rendering="optimizeSpeed" width="32.32" height="32.32"/>
	<rect x="879.36" y="814.72" shape-rendering="optimizeSpeed" width="32.32" height="32.32"/>
	<rect x="944" y="814.72" shape-rendering="optimizeSpeed" width="32.32" height="32.32"/>
	<rect x="976.32" y="814.72" shape-rendering="optimizeSpeed" width="32.32" height="32.32"/>
	<rect x="71.36" y="847.04" shape-rendering="optimizeSpeed" width="32.32" height="32.32"/>
	<rect x="136" y="847.04" shape-rendering="optimizeSpeed" width="32.32" height="32.32"/>
	<rect x="168.32" y="847.04" shape-rendering="optimizeSpeed" width="32.32" height="32.32"/>
	<rect x="200.64" y="847.04" shape-rendering="optimizeSpeed" width="32.32" height="32.32"/>
	<rect x="265.28" y="847.04" shape-rendering="optimizeSpeed" width="32.32" height="32.32"/>
	<rect x="394.56" y="847.04" shape-rendering="optimizeSpeed" width="32.32" height="32.32"/>
	<rect x="459.2" y="847.04" shape-rendering="optimizeSpeed" width="32.32" height="32.32"/>
	<rect x="523.84" y="847.04" shape-rendering="optimizeSpeed" width="32.32" height="32.32"/>
	<rect x="556.16" y="847.04" shape-rendering="optimizeSpeed" width="32.32" height="32.32"/>
	<rect x="588.48" y="847.04" shape-rendering="optimizeSpeed" width="32.32" height="32.32"/>
	<rect x="717.76" y="847.04" shape-rendering="optimizeSpeed" width="32.32" height="32.32"/>
	<rect x="750.08" y="847.04" shape-rendering="optimizeSpeed" width="32.32" height="32.32"/>
	<rect x="782.4" y="847.04" shape-rendering="optimizeSpeed" width="32.32" height="32.32"/>
	<rect x="814.72" y="847.04" shape-rendering="optimizeSpeed" width="32.32" height="32.32"/>
	<rect x="847.04" y="847.04" shape-rendering="optimizeSpeed" width="32.32" height="32.32"/>
	<rect x="911.68" y="847.04" shape-rendering="optimizeSpeed" width="32.32" height="32.32"/>
	<rect x="71.36" y="879.36" shape-rendering="optimizeSpeed" width="32.32" height="32.32"/>
	<rect x="136" y="879.36" shape-rendering="optimizeSpeed" width="32.32" height="32.32"/>
	<rect x="168.32" y="879.36" shape-rendering="optimizeSpeed" width="32.32" height="32.32"/>
	<rect x="200.64" y="879.36" shape-rendering="optimizeSpeed" width="32.32" height="32.32"/>
	<rect x="265.28" y="879.36" shape-rendering="optimizeSpeed" width="32.32" height="32.32"/>
	<rect x="329.92" y="879.36" shape-rendering="optimizeSpeed" width="32.32" height="32.32"/>
	<rect x="362.24" y="879.36" shape-rendering="optimizeSpeed" width="32.32" height="32.32"/>
	<rect x="426.88" y="879.36" shape-rendering="optimizeSpeed" width="32.32" height="32.32"/>
	<rect x="459.2" y="879.36" shape-rendering="optimizeSpeed" width="32.32" height="32.32"/>
	<rect x="523.84" y="879.36" shape-rendering="optimizeSpeed" width="32.32" height="32.32"/>
	<rect x="556.16" y="879.36" shape-rendering="optimizeSpeed" width="32.32" height="32.32"/>
	<rect x="620.8" y="879.36" shape-rendering="optimizeSpeed" width="32.32" height="32.32"/>
	<rect x="653.12" y="879.36" shape-rendering="optimizeSpeed" width="32.32" height="32.32"/>
	<rect x="685.44" y="879.36" shape-rendering="optimizeSpeed" width="32.32" height="32.32"/>
	<rect x="717.76" y="879.36" shape-rendering="optimizeSpeed" width="32.32" height="32.32"/>
	<rect x="750.08" y="879.36" shape-rendering="optimizeSpeed" width="32.32" height="32.32"/>
	<rect x="814.72" y="879.36" shape-rendering="optimizeSpeed" width="32.32" height="32.32"/>
	<rect x="847.04" y="879.36" shape-rendering="optimizeSpeed" width="32.32" height="32.32"/>
	<rect x="879.36" y="879.36" shape-rendering="optimizeSpeed" width="32.32" height="32.32"/>
	<rect x="976.32" y="879.36" shape-rendering="optimizeSpeed" width="32.32" height="32.32"/>
	<rect x="71.36" y="911.68" shape-rendering="optimizeSpeed" width="32.32" height="32.32"/>
	<rect x="136" y="911.68" shape-rendering="optimizeSpeed" width="32.32" height="32.32"/>
	<rect x="168.32" y="911.68" shape-rendering="optimizeSpeed" width="32.32" height="32.32"/>
	<rect x="200.64" y="911.68" shape-rendering="optimizeSpeed" width="32.32" height="32.32"/>
	<rect x="265.28" y="911.68" shape-rendering="optimizeSpeed" width="32.32" height="32.32"/>
	<rect x="329.92" y="911.68" shape-rendering="optimizeSpeed" width="32.32" height="32.32"/>
	<rect x="426.88" y="911.68" shape-rendering="optimizeSpeed" width="32.32" height="32.32"/>
	<rect x="491.52" y="911.68" shape-rendering="optimizeSpeed" width="32.32" height="32.32"/>
	<rect x="588.48" y="911.68" shape-rendering="optimizeSpeed" width="32.32" height="32.32"/>
	<rect x="620.8" y="911.68" shape-rendering="optimizeSpeed" width="32.32" height="32.32"/>
	<rect x="653.12" y="911.68" shape-rendering="optimizeSpeed" width="32.32" height="32.32"/>
	<rect x="685.44" y="911.68" shape-rendering="optimizeSpeed" width="32.32" height="32.32"/>
	<rect x="814.72" y="911.68" shape-rendering="optimizeSpeed" width="32.32" height="32.32"/>
	<rect x="911.68" y="911.68" shape-rendering="optimizeSpeed" width="32.32" height="32.32"/>
	<rect x="976.32" y="911.68" shape-rendering="optimizeSpeed" width="32.32" height="32.32"/>
	<rect x="71.36" y="944" shape-rendering="optimizeSpeed" width="32.32" height="32.32"/>
	<rect x="265.28" y="944" shape-rendering="optimizeSpeed" width="32.32" height="32.32"/>
	<rect x="329.92" y="944" shape-rendering="optimizeSpeed" width="32.32" height="32.32"/>
	<rect x="362.24" y="944" shape-rendering="optimizeSpeed" width="32.32" height="32.32"/>
	<rect x="394.56" y="944" shape-rendering="optimizeSpeed" width="32.32" height="32.32"/>
	<rect x="426.88" y="944" shape-rendering="optimizeSpeed" width="32.32" height="32.32"/>
	<rect x="523.84" y="944" shape-rendering="optimizeSpeed" width="32.32" height="32.32"/>
	<rect x="556.16" y="944" shape-rendering="optimizeSpeed" width="32.32" height="32.32"/>
	<rect x="588.48" y="944" shape-rendering="optimizeSpeed" width="32.32" height="32.32"/>
	<rect x="717.76" y="944" shape-rendering="optimizeSpeed" width="32.32" height="32.32"/>
	<rect x="782.4" y="944" shape-rendering="optimizeSpeed" width="32.32" height="32.32"/>
	<rect x="814.72" y="944" shape-rendering="optimizeSpeed" width="32.32" height="32.32"/>
	<rect x="879.36" y="944" shape-rendering="optimizeSpeed" width="32.32" height="32.32"/>
	<rect x="944" y="944" shape-rendering="optimizeSpeed" width="32.32" height="32.32"/>
	<rect x="71.36" y="976.32" shape-rendering="optimizeSpeed" width="32.32" height="32.32"/>
	<rect x="103.68" y="976.32" shape-rendering="optimizeSpeed" width="32.32" height="32.32"/>
	<rect x="136" y="976.32" shape-rendering="optimizeSpeed" width="32.32" height="32.32"/>
	<rect x="168.32" y="976.32" shape-rendering="optimizeSpeed" width="32.32" height="32.32"/>
	<rect x="200.64" y="976.32" shape-rendering="optimizeSpeed" width="32.32" height="32.32"/>
	<rect x="232.96" y="976.32" shape-rendering="optimizeSpeed" width="32.32" height="32.32"/>
	<rect x="265.28" y="976.32" shape-rendering="optimizeSpeed" width="32.32" height="32.32"/>
	<rect x="329.92" y="976.32" shape-rendering="optimizeSpeed" width="32.32" height="32.32"/>
	<rect x="362.24" y="976.32" shape-rendering="optimizeSpeed" width="32.32" height="32.32"/>
	<rect x="459.2" y="976.32" shape-rendering="optimizeSpeed" width="32.32" height="32.32"/>
	<rect x="523.84" y="976.32" shape-rendering="optimizeSpeed" width="32.32" height="32.32"/>
	<rect x="556.16" y="976.32" shape-rendering="optimizeSpeed" width="32.32" height="32.32"/>
	<rect x="620.8" y="976.32" shape-rendering="optimizeSpeed" width="32.32" height="32.32"/>
	<rect x="653.12" y="976.32" shape-rendering="optimizeSpeed" width="32.32" height="32.32"/>
	<rect x="685.44" y="976.32" shape-rendering="optimizeSpeed" width="32.32" height="32.32"/>
	<rect x="717.76" y="976.32" shape-rendering="optimizeSpeed" width="32.32" height="32.32"/>
	<rect x="750.08" y="976.32" shape-rendering="optimizeSpeed" width="32.32" height="32.32"/>
	<rect x="944" y="976.32" shape-rendering="optimizeSpeed" width="32.32" height="32.32"/>
</g>
</svg>
